<svg xmlns="http://www.w3.org/2000/svg" width="185" height="55" fill="none" viewBox="0 0 185 55">
    <path fill="#A2ADFC" d="M34.62 19.73L16.218 34.92l23.678 10.624 9.12-7.532 9.281-7.66L34.62 19.73z"/>
    <path fill="#4E6AF4" d="M33.044 8.943L10.96 27.178 37.234 38.97l3.685-3.043-21.075-9.461 14.715-12.15 21.076 9.456 3.685-3.037L33.044 8.943z"/>
    <path fill="#2D2F3F" d="M75.563 37.41c-1.711-.996-3.087-2.481-3.95-4.267-.958-2.04-1.43-4.277-1.376-6.532-.054-2.257.417-4.495 1.377-6.538.857-1.788 2.234-3.276 3.949-4.267 1.847-1.022 3.932-1.534 6.041-1.482 1.553-.022 3.097.229 4.563.741 1.336.467 2.556 1.217 3.577 2.2l-1.203 2.59c-.983-.854-2.106-1.535-3.318-2.012-1.14-.412-2.346-.616-3.558-.602-2.497 0-4.42.803-5.771 2.41-1.351 1.607-2.026 3.917-2.026 6.93 0 3.005.675 5.32 2.026 6.942 1.35 1.623 3.274 2.427 5.77 2.41 1.213.014 2.418-.19 3.56-.602 1.212-.477 2.334-1.157 3.317-2.013l1.203 2.591c-1.021.983-2.241 1.733-3.577 2.2-1.465.52-3.009.78-4.563.765-2.108.063-4.194-.443-6.041-1.464zM93.862 38.633V14.577H97.3v24.056h-3.438zM130.765 24.472l-2.08.205c-1.635.16-2.809.66-3.522 1.5-.735.902-1.115 2.043-1.07 3.206v9.25h-3.439v-16.65h3.337v2.899c.885-1.957 2.689-3.038 5.41-3.242l1.124-.067.24 2.899zM136.687 14.54h-3.373v3.586h3.373v-3.585zM136.717 21.983h-3.439V38.64h3.439V21.983zM151.084 36.108l-.169 2.628c-.584.092-1.175.139-1.767.138-2.156 0-3.759-.528-4.809-1.585-1.05-1.056-1.577-2.587-1.581-4.592v-8.056h-3.234v-2.658h3.234v-5.02h3.439v5.02h4.562v2.664h-4.562v7.894c0 2.434 1.124 3.652 3.372 3.652.506.006 1.012-.023 1.515-.085zM165.914 22.013h3.438l-9.924 22.767h-3.475l2.892-6.55-6.98-16.21h3.607l5.176 12.726 5.266-12.733zM117.084 22.007v16.59h-3.319v-3.501c-.587 1.122-1.457 2.07-2.525 2.748-1.034.633-2.226.961-3.438.946-1.069.044-2.135-.149-3.121-.565-.987-.417-1.869-1.047-2.584-1.846-1.443-1.606-2.164-3.758-2.164-6.453 0-2.696.701-4.853 2.104-6.473.699-.796 1.566-1.425 2.538-1.842.973-.417 2.026-.611 3.083-.568 1.265-.036 2.515.286 3.607.928 1.047.668 1.888 1.615 2.428 2.736v-2.7h3.391zm-3.319 7.997c.078-1.635-.463-3.238-1.515-4.49-1.034-1.064-2.446-1.675-3.928-1.7-1.482-.025-2.913.539-3.983 1.568-.945 1.044-1.418 2.503-1.418 4.375 0 2.008.477 3.545 1.43 4.61.515.552 1.145.984 1.846 1.264.7.28 1.453.402 2.206.357.732.04 1.464-.08 2.144-.352.681-.271 1.295-.688 1.8-1.221.945-1.057 1.418-2.527 1.418-4.411z"/>
</svg>
